<?xml version="1.0" encoding="UTF-8" standalone="no"?>
<svg width="14px" height="14px" viewBox="0 0 14 14" version="1.1" xmlns="http://www.w3.org/2000/svg" xmlns:xlink="http://www.w3.org/1999/xlink">
    <!-- Generator: Sketch 3.6.1 (26313) - http://www.bohemiancoding.com/sketch -->
    <title>clock104</title>
    <desc>Created with Sketch.</desc>
    <defs></defs>
    <g id="Главная-/-Акции" stroke="none" stroke-width="1" fill="none" fill-rule="evenodd">
        <g id="Price" transform="translate(-1330.000000, -334.000000)" fill="#000000">
            <g id="Group" transform="translate(-138.000000, 83.000000)">
                <g id="line" transform="translate(1168.000000, 238.000000)">
                    <g id="clock104" transform="translate(300.000000, 13.000000)">
                        <g id="Group">
                            <path d="M13.4411895,4.27505556 C12.7030784,2.55422222 11.4487974,1.30270915 9.71359804,0.562653595 C8.84633007,0.19277451 7.93772549,0.00384313725 6.98849346,0.00384313725 C6.03942157,0.00384313725 5.13751961,0.190990196 4.27121242,0.562653595 C2.55037908,1.30074183 1.29053922,2.55145425 0.551124183,4.27505556 C0.180604575,5.1385719 0,6.04324183 0,6.99231373 C0,7.94156863 0.180604575,8.85374183 0.551124183,9.71744118 C1.29053922,11.4410425 2.55053922,12.6992582 4.27121242,13.4375294 C5.13767974,13.8091928 6.03939869,13.9961569 6.98849346,13.9961569 C7.93758824,13.9961569 8.84633007,13.8072255 9.71346078,13.4375294 C11.4486601,12.697451 12.7029412,11.4381144 13.4412124,9.71744118 C13.8128529,8.85097386 14,7.94156863 14,6.99231373 C14,6.04324183 13.8130131,5.1415 13.4411895,4.27505556 L13.4411895,4.27505556 Z M12.3237516,10.0848725 C11.7742516,11.0272418 11.0214542,11.7748464 10.0733431,12.3275948 C9.13097386,12.8770948 8.0984281,13.1542124 6.98865359,13.1542124 C6.15437255,13.1542124 5.35829412,12.9935327 4.6004183,12.6643268 C3.84256536,12.335281 3.18822549,11.9026993 2.64085294,11.3554869 C2.09348039,10.8081144 1.65781046,10.1473922 1.33203595,9.38823529 C1.00722222,8.63184641 0.849813725,7.82677778 0.849813725,6.9923366 C0.849813725,5.88240196 1.12251634,4.85509477 1.6689281,3.91533333 C2.21728431,2.97214052 2.97024183,2.22373529 3.91165033,1.67258824 C4.85289869,1.12146405 5.87874183,0.845810458 6.98849346,0.845810458 C8.0984281,0.845810458 9.13079085,1.12308824 10.073183,1.67258824 C11.0212941,2.22535948 11.7724673,2.97374183 12.3235915,3.91531046 C12.8747157,4.85671895 13.1502092,5.88240196 13.1502092,6.99231373 C13.1502092,8.10227124 12.8765229,9.13657843 12.3237516,10.0848725 L12.3237516,10.0848725 Z" id="Shape"></path>
                            <path d="M7.4324902,6.93109804 L7.4324902,2.96605556 C7.4324902,2.72878758 7.22576144,2.5374085 6.98847059,2.5374085 C6.76655229,2.5374085 6.56748693,2.72878758 6.56748693,2.96605556 L6.56748693,6.99231373 C6.56748693,7 6.5828366,7.03069935 6.5828366,7.05357516 C6.56748693,7.19137908 6.60587255,7.30619281 6.69765033,7.39813072 L8.98644444,9.68676471 C9.13959804,9.8399183 9.4227549,9.8399183 9.57579412,9.68676471 C9.75180065,9.51073529 9.74022549,9.2553268 9.57579412,9.08972876 L7.4324902,6.93109804 L7.4324902,6.93109804 Z" id="Shape"></path>
                        </g>
                    </g>
                </g>
            </g>
        </g>
    </g>
</svg>