<?xml version="1.0" encoding="UTF-8" standalone="no"?>
<svg width="18px" height="18px" viewBox="0 0 18 18" version="1.1" xmlns="http://www.w3.org/2000/svg" xmlns:xlink="http://www.w3.org/1999/xlink">
    <!-- Generator: Sketch 3.6.1 (26313) - http://www.bohemiancoding.com/sketch -->
    <title>magnifying-glass34</title>
    <desc>Created with Sketch.</desc>
    <defs></defs>
    <g id="Главная-/-Каталог" stroke="none" stroke-width="1" fill="none" fill-rule="evenodd">
        <g id="Desktop_Catalog" transform="translate(-955.000000, -575.000000)" fill="#FFFFFF">
            <g id="Group-Copy-10" transform="translate(720.000000, 567.000000)">
                <g id="magnifying-glass34" transform="translate(235.000000, 8.000000)">
                    <g id="Capa_1">
                        <path d="M12.0016785,11.7278926 C13.1395425,10.4845165 13.8494226,8.8196281 13.8494226,6.98615702 C13.8494226,3.14007025 10.7489706,0 6.92821151,0 C3.10745245,0 0.00700042644,3.14007025 0.00700042644,6.98615702 C0.00700042644,10.8322438 3.10745245,13.972314 6.92821151,13.972314 C8.48366942,13.972314 9.9138197,13.4560041 11.0725745,12.581405 L16.2191038,17.7762273 C16.3443746,17.9026736 16.5009631,17.9658967 16.6575516,17.9658967 C16.81414,17.9658967 16.9811555,17.9026736 17.0959993,17.7762273 C17.3361139,17.5338595 17.3361139,17.1334711 17.0959993,16.8805785 L12.0016785,11.7278926 L12.0016785,11.7278926 Z M1.25970832,6.98615702 C1.25970832,3.83552479 3.79644179,1.26446281 6.92821151,1.26446281 C10.0495543,1.26446281 12.5967147,3.825 12.5967147,6.98615702 C12.5967147,10.147314 10.0599812,12.7078512 6.92821151,12.7078512 C3.79644179,12.7078512 1.25970832,10.1367893 1.25970832,6.98615702 L1.25970832,6.98615702 Z" id="Shape"></path>
                    </g>
                </g>
            </g>
        </g>
    </g>
</svg>