<?xml version="1.0" encoding="UTF-8" standalone="no"?>
<svg width="27px" height="27px" viewBox="0 0 27 27" version="1.1" xmlns="http://www.w3.org/2000/svg" xmlns:xlink="http://www.w3.org/1999/xlink">
    <!-- Generator: Sketch 3.6.1 (26313) - http://www.bohemiancoding.com/sketch -->
    <title>Notification</title>
    <desc>Created with Sketch.</desc>
    <defs></defs>
    <g id="Главная-/-Акции" stroke="none" stroke-width="1" fill="none" fill-rule="evenodd">
        <g id="Desktop_HD" transform="translate(-735.000000, -4752.000000)" fill="#FFFFFF">
            <g id="Group-Copy-15" transform="translate(590.000000, 4669.000000)">
                <g id="Напомнить-+-bells9" transform="translate(145.000000, 83.000000)">
                    <g id="bells9">
                        <g id="_x37_7_Essential_Icons_42_">
                            <path d="M21.1402286,2.10105634 L21.5259429,0.998239437 C21.6802286,0.617957746 21.4873714,0.161619718 21.0630857,0.0475352113 C20.6773714,-0.104577465 20.2145143,0.123591549 20.0988,0.503873239 L19.6745143,1.56866197 C14.6988,0.237676056 9.41451429,2.82359155 7.60165714,7.61514085 L5.09451429,14.3841549 L0.465942857,16.4757042 C-0.1512,16.7419014 -0.112628571,17.6165493 0.543085714,17.8447183 L8.87451429,20.8489437 C8.52737143,22.7883803 9.64594286,24.7278169 11.5745143,25.4123239 C13.5030857,26.096831 15.6630857,25.2982394 16.6659429,23.625 L25.0745143,26.5911972 L25.0745143,26.5911972 C25.4602286,26.7433099 25.9230857,26.553169 26.0773714,26.1348592 C26.1545143,25.9066901 26.1159429,25.6785211 26.0002286,25.4883803 L23.8788,21.0390845 L26.3859429,14.2700704 C28.1988,9.47852113 25.8459429,4.19260563 21.1402286,2.10105634 L21.1402286,2.10105634 Z M12.1530857,24.0052817 C10.9959429,23.5869718 10.3016571,22.5221831 10.3788,21.381338 L15.2388,23.0926056 C14.5445143,24.0052817 13.2716571,24.3855634 12.1530857,24.0052817 L12.1530857,24.0052817 Z M24.9588,13.7757042 L22.3359429,20.8109155 C22.2588,21.0010563 22.2588,21.1911972 22.3745143,21.381338 L23.8788,24.5376761 L16.5888,21.9897887 L10.0702286,19.6700704 L2.78022857,17.0841549 L6.02022857,15.6010563 C6.21308571,15.525 6.3288,15.3728873 6.40594286,15.1827465 L9.0288,8.14753521 C10.6102286,3.88838028 15.4702286,1.68274648 19.8673714,3.20387324 C24.2645143,4.76302817 26.5402286,9.5165493 24.9588,13.7757042 L24.9588,13.7757042 Z" id="Notification"></path>
                        </g>
                    </g>
                </g>
            </g>
        </g>
    </g>
</svg>