<?xml version="1.0" encoding="UTF-8" standalone="no"?>
<svg width="15px" height="10px" viewBox="0 0 15 10" version="1.1" xmlns="http://www.w3.org/2000/svg" xmlns:xlink="http://www.w3.org/1999/xlink">
    <!-- Generator: Sketch 3.6.1 (26313) - http://www.bohemiancoding.com/sketch -->
    <title>Shape Copy 13</title>
    <desc>Created with Sketch.</desc>
    <defs></defs>
    <g id="Главная-/-Каталог" stroke="none" stroke-width="1" fill="none" fill-rule="evenodd">
        <g id="Tablet-Portrait--menu_Catalog" transform="translate(-161.000000, -347.000000)" fill="#D10074">
            <path d="M170.886998,347.197879 C170.626383,346.93404 170.203717,346.93404 169.943101,347.197879 C169.682432,347.461771 169.682432,347.889555 169.943101,348.153448 L173.07524,351.324317 L161.667424,351.324317 C161.298846,351.324317 161,351.626858 161,351.999993 C161,352.373075 161.298846,352.67567 161.667424,352.67567 L173.07524,352.67567 L169.943208,355.846539 C169.682539,356.110431 169.682539,356.538216 169.943208,356.802108 C170.073489,356.933946 170.244349,357 170.415156,357 C170.585963,357 170.756771,356.933946 170.887105,356.802108 L175.158509,352.477778 C175.419178,352.213885 175.419178,351.786101 175.158509,351.522209 L170.886998,347.197879 Z" id="Shape-Copy-13"></path>
        </g>
    </g>
</svg>