<?xml version="1.0" encoding="UTF-8" standalone="no"?>
<svg width="22px" height="22px" viewBox="0 0 22 22" version="1.1" xmlns="http://www.w3.org/2000/svg" xmlns:xlink="http://www.w3.org/1999/xlink">
    <!-- Generator: Sketch 3.6.1 (26313) - http://www.bohemiancoding.com/sketch -->
    <title>Shape</title>
    <desc>Created with Sketch.</desc>
    <defs></defs>
    <g id="Главная-/-Акции" stroke="none" stroke-width="1" fill="none" fill-rule="evenodd">
        <path d="M20.1,11 C20.1,16.0254576 16.0254576,20.1 11,20.1 C5.97454237,20.1 1.9,16.0254576 1.9,11 C1.9,5.97454237 5.97454237,1.9 11,1.9 C16.0254576,1.9 20.1,5.97454237 20.1,11 L20.1,11 Z M21.1,11 C21.1,5.42225763 16.5777424,0.9 11,0.9 C5.42225763,0.9 0.9,5.42225763 0.9,11 C0.9,16.5777424 5.42225763,21.1 11,21.1 C16.5777424,21.1 21.1,16.5777424 21.1,11 Z M11,20.6 C13.1544,20.6 15.1352,19.8816 16.7376,18.684 C15.9208,15.9056 13.6632,13.9048 11,13.9048 C8.3368,13.9048 6.0792,15.9056 5.2624,18.684 C6.8648,19.8816 8.8456,20.6 11,20.6 Z M14.2,8.966 C14.2,10.7332 12.7672,12.166 11,12.166 C9.2328,12.166 7.8,10.7332 7.8,8.966 C7.8,7.1988 9.2328,5.766 11,5.766 C12.7672,5.766 14.2,7.1988 14.2,8.966 Z" id="Shape" fill="#FFFFFF"></path>
    </g>
</svg>