<?xml version="1.0" encoding="UTF-8" standalone="no"?>
<svg width="21px" height="21px" viewBox="0 0 21 21" version="1.1" xmlns="http://www.w3.org/2000/svg" xmlns:xlink="http://www.w3.org/1999/xlink">
    <!-- Generator: Sketch 3.6.1 (26313) - http://www.bohemiancoding.com/sketch -->
    <title>Shape + Shape Copy 2</title>
    <desc>Created with Sketch.</desc>
    <defs></defs>
    <g id="Главная-/-Акции" stroke="none" stroke-width="1" fill="none" fill-rule="evenodd">
        <g id="Price" transform="translate(-1557.000000, -1579.000000)" fill="#D10074">
            <g id="Shape-+-Shape-Copy-2" transform="translate(1557.000000, 1579.000000)">
                <path d="M20.1617843,6.40681863 C19.0546176,3.82556863 17.1731961,1.94829902 14.5703971,0.838215686 C13.2694951,0.283397059 11.9065882,0 10.4827402,0 C9.05913235,0 7.70627941,0.280720588 6.40681863,0.838215686 C3.82556863,1.94534804 1.93580882,3.82141667 0.826686275,6.40681863 C0.270906863,7.70209314 0,9.05909804 0,10.4827059 C0,11.9065882 0.270906863,13.274848 0.826686275,14.5703971 C1.93580882,17.155799 3.82580882,19.0431225 6.40681863,20.1505294 C7.70651961,20.7080245 9.05909804,20.9884706 10.4827402,20.9884706 C11.9063824,20.9884706 13.2694951,20.7050735 14.5701912,20.1505294 C17.1729902,19.0404118 19.0544118,17.1514069 20.1618186,14.5703971 C20.7192794,13.2706961 21,11.9065882 21,10.4827059 C21,9.05909804 20.7195196,7.70648529 20.1617843,6.40681863 L20.1617843,6.40681863 Z M18.4856275,15.1215441 C17.6613775,16.535098 16.5321814,17.6565049 15.1100147,18.4856275 C13.6964608,19.3098775 12.1476422,19.7255539 10.4829804,19.7255539 C9.23155882,19.7255539 8.03744118,19.4845343 6.90062745,18.9907255 C5.76384804,18.4971569 4.78233824,17.8482843 3.96127941,17.0274657 C3.14022059,16.2064069 2.48671569,15.2153235 1.99805392,14.0765882 C1.51083333,12.9420049 1.27472059,11.734402 1.27472059,10.4827402 C1.27472059,8.81783824 1.68377451,7.27687745 2.50339216,5.86723529 C3.32592647,4.45244608 4.45536275,3.32983824 5.86747549,2.50311765 C7.27934804,1.67643137 8.81811275,1.26295098 10.4827402,1.26295098 C12.1476422,1.26295098 13.6961863,1.67886765 15.1097745,2.50311765 C16.5319412,3.33227451 17.658701,4.45484804 18.4853873,5.86720098 C19.3120735,7.27931373 19.7253137,8.81783824 19.7253137,10.4827059 C19.7253137,12.1476422 19.3147843,13.6991029 18.4856275,15.1215441 L18.4856275,15.1215441 Z" id="Shape"></path>
                <path d="M11.7975049,10.5280343 L11.7975049,4.58047059 C11.7975049,4.22456863 11.4874118,3.9375 11.1314755,3.9375 C10.798598,3.9375 10.5,4.22456863 10.5,4.58047059 L10.5,10.6198578 C10.5,10.6313873 10.5230245,10.6774363 10.5230245,10.71175 C10.5,10.9184559 10.5575784,11.0906765 10.6952451,11.2285833 L14.1284363,14.6615343 C14.3581667,14.8912647 14.782902,14.8912647 15.0124608,14.6615343 C15.2764706,14.3974902 15.2591078,14.0143775 15.0124608,13.7659804 L11.7975049,10.5280343 L11.7975049,10.5280343 Z" id="Shape"></path>
            </g>
        </g>
    </g>
</svg>