<?xml version="1.0" encoding="utf-8"?>
<!-- Generator: Adobe Illustrator 19.0.0, SVG Export Plug-In . SVG Version: 6.00 Build 0)  -->
<svg version="1.1" id="Layer_1" xmlns="http://www.w3.org/2000/svg" xmlns:xlink="http://www.w3.org/1999/xlink" x="0px" y="0px"
	 viewBox="0 0 87 40" style="enable-background:new 0 0 87 40;" xml:space="preserve">
<style type="text/css">
	.st0{fill:#FFFFFF;}
</style>
<g>
	<rect x="44.9" y="32.7" class="st0" width="19.8" height="1.4"/>
	<path class="st0" d="M73.4,26c-3.9,0-7,3.1-7,7s3.1,7,7,7s7-3.1,7-7S77.3,26,73.4,26z M73.4,38.5c-3.1,0-5.6-2.5-5.6-5.5
		s2.5-5.5,5.6-5.5c3.1,0,5.6,2.5,5.6,5.5S76.5,38.5,73.4,38.5z"/>
	<path class="st0" d="M35.9,26c-3.9,0-7,3.1-7,7s3.1,7,7,7s7-3.1,7-7S39.7,26,35.9,26z M35.9,38.5c-3.1,0-5.6-2.5-5.6-5.5
		s2.5-5.5,5.6-5.5s5.6,2.5,5.6,5.5S38.9,38.5,35.9,38.5z"/>
	<path class="st0" d="M86.8,22L71.5,4.2C71.3,4.1,71.1,4,70.9,4h-6.5V0.7c0-0.4-0.3-0.7-0.7-0.7H22.6c-0.4,0-0.7,0.3-0.7,0.7v32.7
		c0,0.4,0.3,0.7,0.7,0.7h4.2v-1.4h-3.5V1.4H63v3.3c0,0.4,0.3,0.7,0.7,0.7h6.9l15,17.3v10.1h-3.4v1.4h4.1c0.4,0,0.7-0.3,0.7-0.7v-11
		C87,22.2,86.9,22.1,86.8,22z"/>
	<rect x="5.6" y="13.2" class="st0" width="10.5" height="1.4"/>
	<rect y="18.1" class="st0" width="16.1" height="1.4"/>
	<rect x="5.6" y="22.9" class="st0" width="10.5" height="1.4"/>
</g>
</svg>
