<?xml version="1.0" encoding="utf-8"?>
<!-- Generator: Adobe Illustrator 19.0.0, SVG Export Plug-In . SVG Version: 6.00 Build 0)  -->
<svg version="1.1" id="Layer_1" xmlns="http://www.w3.org/2000/svg" xmlns:xlink="http://www.w3.org/1999/xlink" x="0px" y="0px"
	 viewBox="0 0 72 45" style="enable-background:new 0 0 72 45;" xml:space="preserve">
<style type="text/css">
	.st0{fill:#FFFFFF;}
</style>
<path class="st0" d="M26.6,45c-0.1,0-0.2,0-0.3-0.1c-0.3-0.1-0.5-0.5-0.3-0.9L44.8,0.4c0.1-0.3,0.5-0.5,0.9-0.3
	C46,0.2,46.1,0.6,46,0.9L27.2,44.6C27.1,44.9,26.9,45,26.6,45z"/>
<g>
	<path class="st0" d="M24.1,11.7C24,10.3,22.9,8.9,20.8,9c-1.2,0.1-2.1,0.5-2.8,0.9l-0.1-0.6l-1.3,0.1l-0.4,3.5l1.6-0.1l0.3-1.3
		c0.3-0.2,1-0.5,1.9-0.6c1.3-0.1,1.9,0.6,1.9,1.4c0,0.7-0.3,1.4-0.8,2l-6.1,0.3l0,1.4l4.5-0.2c-0.7,0.6-1.5,1.2-2.3,1.9l-2.6,0.1
		l0,1.3l1.2,0.1c-0.6,0.8-0.9,1.7-0.9,2.7c0.1,2,1.7,2.9,4.3,2.8c2.7-0.1,3.8-0.7,3.8-0.7l0.4-3.1l-1.7,0l-0.3,1.7
		c-0.5,0.1-1.1,0.2-2,0.3c-1.5,0.1-2.2-0.5-2.3-1.5c0-0.8,0.2-1.4,0.7-2l6-0.3l0.1-1.4l-4.5,0.2c0.7-0.6,1.6-1.2,2.3-1.9l2.4-0.1
		l0.1-1.3l-1.2,0C23.8,13.6,24.1,12.7,24.1,11.7z"/>
	<path class="st0" d="M0,3.3v27.3h27.1L38.6,3.3H0z M26.2,29.3H1.3V4.6h35.4L26.2,29.3z"/>
</g>
<g>
	<path class="st0" d="M44.9,14.3L33.4,41.6H72V14.3H44.9z M45.8,15.6h24.9v5.7H43.4L45.8,15.6z M35.3,40.3L41,27h29.7v13.3H35.3z"/>
	<path class="st0" d="M64.4,31.4c-0.8,0-1.6,0.4-2,1.1c-0.4-0.7-1.2-1.1-2-1.1c-1.3,0-2.4,1.1-2.4,2.4c0,1.3,1.1,2.4,2.4,2.4
		c0.8,0,1.6-0.4,2-1.1c0.4,0.7,1.2,1.1,2,1.1c1.3,0,2.4-1.1,2.4-2.4C66.8,32.5,65.7,31.4,64.4,31.4z"/>
</g>
</svg>
