<?xml version="1.0" encoding="utf-8"?>
<!-- Generator: Adobe Illustrator 19.0.0, SVG Export Plug-In . SVG Version: 6.00 Build 0)  -->
<svg version="1.1" id="Layer_1" xmlns="http://www.w3.org/2000/svg" xmlns:xlink="http://www.w3.org/1999/xlink" x="0px" y="0px"
	 viewBox="0 0 50 50" style="enable-background:new 0 0 50 50;" xml:space="preserve">
<style type="text/css">
	.st0{fill:#FFFFFF;}
</style>
<g>
	<path class="st0" d="M16.5,19.2c0-0.3,0-0.5-0.2-0.8c-0.1-0.3-0.3-0.5-0.5-0.7c-0.1-0.1-0.2-0.2-0.4-0.3c-0.1-0.1-0.3-0.2-0.4-0.2
		c-0.2,0-0.3-0.1-0.4,0c-0.1,0-0.3,0.1-0.4,0.2c-0.2,0.2-0.3,0.4-0.2,0.7c0,0.3,0.1,0.5,0.3,0.8c0.2,0.3,0.3,0.6,0.5,0.9
		c0.2,0.3,0.3,0.7,0.4,1c0.1,0.4,0.1,0.7,0,1.1c-0.1,0.4-0.3,0.8-0.7,1.1c-0.4,0.4-0.7,0.6-1.1,0.7s-0.8,0.2-1.2,0.1
		c-0.4-0.1-0.8-0.2-1.2-0.4c-0.4-0.2-0.8-0.5-1.1-0.8c-0.4-0.4-0.8-0.9-1-1.4c-0.2-0.5-0.4-1-0.4-1.6l2.1-0.1c0,0.3,0,0.7,0.1,1
		c0.1,0.3,0.3,0.6,0.5,0.9c0.1,0.1,0.3,0.2,0.4,0.3c0.1,0.1,0.3,0.2,0.4,0.2c0.2,0,0.3,0,0.4,0c0.1,0,0.3-0.1,0.4-0.2
		c0.2-0.2,0.3-0.4,0.2-0.7c0-0.3-0.1-0.6-0.3-0.9c-0.2-0.3-0.3-0.6-0.5-1c-0.2-0.3-0.3-0.7-0.4-1.1c-0.1-0.4-0.1-0.7,0-1.1
		c0.1-0.4,0.3-0.7,0.6-1.1c0.3-0.3,0.7-0.6,1.1-0.7c0.4-0.1,0.8-0.2,1.2-0.1c0.4,0.1,0.8,0.2,1.2,0.4c0.4,0.2,0.8,0.5,1.1,0.8
		c0.4,0.4,0.7,0.8,0.9,1.2c0.2,0.5,0.4,0.9,0.4,1.5L16.5,19.2z"/>
	<path class="st0" d="M22,21.6l1.2,1.2l-3.6,9.4L18,30.5l0.8-1.9L16.2,26l-1.9,0.8l-1.6-1.6L22,21.6z M20.7,24l-2.8,1.2l1.6,1.6
		L20.7,24z"/>
	<path class="st0" d="M26.5,26.1l1.5,1.4l-5.2,5.2l2.7,2.7l-1.3,1.3l-4.1-4.1L26.5,26.1z"/>
	<path class="st0" d="M31.3,30.8l4.5,4.5l-1.3,1.3l-3-3l-1.2,1.2l2.9,2.8l-1.3,1.3l-2.9-2.8l-1.3,1.3l3.2,3.2l-1.3,1.3l-4.6-4.6
		L31.3,30.8z"/>
</g>
<path class="st0" d="M35.5,14.7c0.6-0.2,1-0.5,1.4-0.9c0.5-0.5,0.8-1,0.9-1.6c0.2-0.8,0-1.6-0.6-2.4c-1.2-1.7-4-3.2-7.2-3.8
	c-1-0.2-1.9-0.3-2.9-0.3l0,0l0,0l-0.5,0L20.8,0L0,20.9L29.2,50L50,29.2L35.5,14.7z M29.8,7.4c2.9,0.5,5.5,1.8,6.4,3.2
	c0.3,0.5,0.5,1,0.4,1.4c-0.1,0.3-0.2,0.6-0.5,0.9c-0.4,0.3-0.9,0.6-1.5,0.8L28,7.2C28.6,7.2,29.2,7.3,29.8,7.4z M23,11.7
	c-0.3-0.2-0.6-0.5-0.8-0.8l-0.1-0.2l0,0c-0.2-0.1-0.6-0.1-0.8,0.1c-0.3,0.2-0.3,0.6,0,0.9l0.4,0.5c0.1,0.1,0.3,0.3,0.4,0.4
	c-0.7,0.3-1.6,0.2-2.2-0.4c-0.8-0.8-0.8-2,0-2.8C20.2,9.2,20.7,9,21.3,9c0.5,0,1,0.2,1.4,0.6C23.2,10.1,23.4,11,23,11.7z M29.2,48
	L2,20.8L20.8,2l12.1,12.1c-0.5,0.1-1.1,0.1-1.7,0.1c-0.9,0-1.8-0.1-2.7-0.2c-1.6-0.3-3.1-0.8-4.3-1.5c0.7-1.3,0.5-2.9-0.6-4
	c-1.3-1.3-3.5-1.3-4.8,0c-1.3,1.3-1.3,3.5,0,4.8c0.6,0.6,1.5,1,2.4,1c0.8,0,1.5-0.3,2.1-0.8c1.4,0.8,3,1.4,4.9,1.7
	c1,0.2,2,0.3,3,0.3c1,0,1.9-0.1,2.8-0.3l14,13.9L29.2,48z"/>
</svg>
