<?xml version="1.0" encoding="utf-8"?>
<!-- Generator: Adobe Illustrator 19.0.0, SVG Export Plug-In . SVG Version: 6.00 Build 0)  -->
<svg version="1.1" id="Layer_1" xmlns="http://www.w3.org/2000/svg" xmlns:xlink="http://www.w3.org/1999/xlink" x="0px" y="0px"
	 viewBox="0 0 34 45" style="enable-background:new 0 0 34 45;" xml:space="preserve">
<style type="text/css">
	.st0{fill:#FFFFFF;}
</style>
<path class="st0" d="M33.7,4.6C33.5,4.4,27.6,0,17.2,0C7.9,0,1.1,4.1,0.3,4.5L0,4.7v17.6c0,5.6,3,11.2,8.5,16.4
	c3.9,3.6,7.9,5.7,8.6,6.1l0.3,0.2l0.3-0.1c0,0,4.1-2,8.1-5.8c2.3-2.2,4.2-4.6,5.5-7c1.7-3.1,2.5-6.3,2.5-9.6V4.8L33.7,4.6z M1.4,5.5
	c1.8-1,8-4.1,15.9-4.1c8.8,0,14.3,3.4,15.4,4.1v16.8c0,12.8-13.4,20.3-15.1,21.1c-2.8-1.6-16.2-9.8-16.2-21.1V5.5z"/>
<polygon class="st0" points="16.7,26.2 26.1,14.8 26.1,14.8 25,13.9 24.9,13.9 16.6,24 11.5,19 11.4,18.9 10.4,20 10.4,20 
	16.7,26.2 "/>
</svg>
