<?xml version="1.0" encoding="utf-8"?>
<!-- Generator: Adobe Illustrator 19.0.0, SVG Export Plug-In . SVG Version: 6.00 Build 0)  -->
<svg version="1.1" id="Isolation_Mode" xmlns="http://www.w3.org/2000/svg" xmlns:xlink="http://www.w3.org/1999/xlink" x="0px"
	 y="0px" viewBox="0 0 50 48" style="enable-background:new 0 0 50 48;" xml:space="preserve">
<style type="text/css">
	.st0{fill:#FFFFFF;}
</style>
<path class="st0" d="M19.8,39.7c-0.8-1.8-1.7-3-2.8-3.6c-0.4-0.2-1-0.4-1.6-0.4c-0.8,0-1.5,0.2-2.1,0.3l-0.1,0
	c-0.5,0.1-1.5-0.2-1.9-0.9c-0.5-0.7-0.9-1.4-1.3-2.1c-0.3-0.5-0.5-1-0.6-1.3l0,0l-0.2-0.4c0,0-0.4-0.7-0.8-1.6
	c-0.3-0.8-0.6-1.6-0.8-2.4c-0.2-0.7,0.1-1.6,0.6-1.9c0.8-0.6,2.2-1.5,2.4-2.7c0.2-1.2-0.2-2.7-1.1-4.4c-1.1-2-2.3-3-3.7-3
	c-1.1,0-2.2,0.6-3.2,1.2c-0.3,0.2-0.5,0.3-0.8,0.5c-2.9,1.6-2.1,8.9,1.7,16.3c3.3,6.4,8.4,12.9,11.7,12.9c0.2,0,0.5,0,0.7-0.1
	c0.3-0.1,0.6-0.2,0.9-0.3c1.3-0.4,2.9-0.8,3.5-2.1C20.7,42.7,20.5,41.4,19.8,39.7z M18.9,43.1c-0.4,0.8-1.5,1.1-2.6,1.4
	c-0.3,0.1-0.6,0.2-0.9,0.3c-0.1,0-0.2,0-0.3,0c-2,0-6.6-4.6-10.4-12.1C0.8,25.1,0.8,19,2.4,18.1C2.7,18,3,17.8,3.3,17.7
	c0.9-0.5,1.7-1,2.5-1c0.3,0,1.3,0,2.5,2.2c1,1.8,1,2.9,0.9,3.5C9,23,7.9,23.8,7.4,24.2l-0.1,0.1c-0.9,0.7-1.4,2.2-1.1,3.4
	c0.2,0.8,0.5,1.7,0.9,2.5c0.3,0.8,0.7,1.4,0.8,1.7c0.1,0.3,0.3,0.8,0.8,1.7c0.4,0.8,0.9,1.6,1.4,2.3c0.7,1,2.3,1.7,3.4,1.4l0.1,0
	c0.8-0.2,2.2-0.4,2.7-0.1c0.8,0.5,1.6,1.5,2.2,3C19.1,41.5,19.2,42.5,18.9,43.1z"/>
<path class="st0" d="M25,18c0.2-0.2,0.4-0.4,0.6-0.7c0.2-0.2,0.3-0.5,0.4-0.8c0.1-0.3,0.1-0.6,0.1-0.9c0-0.5-0.1-0.9-0.3-1.3
	c-0.2-0.4-0.5-0.7-0.8-0.9c-0.3-0.2-0.7-0.4-1.2-0.6c-0.4-0.1-0.9-0.2-1.4-0.2c-0.5,0-1,0.1-1.4,0.2c-0.4,0.1-0.8,0.4-1.2,0.6
	c-0.3,0.3-0.6,0.6-0.9,1c-0.2,0.4-0.4,0.8-0.4,1.3l2.3,0.3c0-0.4,0.2-0.8,0.5-1.1c0.3-0.3,0.6-0.4,1-0.4c0.4,0,0.7,0.1,0.9,0.3
	c0.2,0.2,0.3,0.5,0.3,0.8c0,0.3-0.1,0.6-0.2,0.8c-0.2,0.2-0.4,0.5-0.6,0.7l-3.9,3.4v1.9h7.3v-2h-4.1l2.3-2
	C24.5,18.4,24.7,18.2,25,18z"/>
<path class="st0" d="M31.5,12.8l-4.1,5.9v1.9h4.8v1.9h2.2v-1.9h1.4v-1.9h-1.4v-6H31.5z M32.2,18.8h-2.4l2.4-3.6h0V18.8z"/>
<polygon class="st0" points="27.5,37.2 31.4,29.3 31.4,27.5 24.1,27.5 24.1,29.5 28.8,29.5 24.7,37.2 "/>
<rect x="18.8" y="24.5" class="st0" width="17.1" height="1.3"/>
<path class="st0" d="M26,0C16.7,0,8.6,5.4,4.6,13.1l1.3,0.5C9.7,6.4,17.3,1.4,26,1.4c12.5,0,22.6,10.1,22.6,22.6
	c0,12.5-10.1,22.6-22.6,22.6c-1.7,0-3.4-0.2-5-0.6l-1.1,1.2c1.9,0.5,4,0.8,6.1,0.8c13.2,0,24-10.8,24-24C50,10.8,39.2,0,26,0z"/>
</svg>
