<?xml version="1.0" encoding="utf-8"?>
<!-- Generator: Adobe Illustrator 19.0.0, SVG Export Plug-In . SVG Version: 6.00 Build 0)  -->
<svg version="1.1" id="Isolation_Mode" xmlns="http://www.w3.org/2000/svg" xmlns:xlink="http://www.w3.org/1999/xlink" x="0px"
	 y="0px" viewBox="0 0 55 50" style="enable-background:new 0 0 55 50;" xml:space="preserve">
<style type="text/css">
	.st0{fill:#FFFFFF;}
</style>
<g>
	<g>
		<path class="st0" d="M23.1,16.3l1-0.6l0.4,0.3c0.3-0.6,0.8-1.3,1.7-1.9c1.6-1.1,3.1-0.7,3.8,0.2c0.5,0.7,0.7,1.4,0.6,2.2l0.9-0.5
			l0.5,0.9l-1.8,1.2c-0.2,0.8-0.6,1.6-0.9,2.3l3.3-2.2l0.6,1l-4.5,2.9c-0.1,0.6,0,1.2,0.4,1.7c0.5,0.6,1.3,0.7,2.4,0
			c0.6-0.4,1.1-0.8,1.4-1.1l-0.5-1.3l1.3-0.7l1.1,2.2c0,0-0.5,0.9-2.6,2.2c-1.9,1.3-3.6,1.4-4.5,0.1c-0.5-0.6-0.6-1.4-0.6-2.2
			l-1,0.5l-0.6-0.9l1.9-1.3c0.3-0.8,0.6-1.5,0.9-2.3l-3.4,2.2l-0.6-0.9l4.6-3c0.1-0.6,0.1-1.2-0.3-1.7c-0.4-0.6-1.2-0.7-2.2-0.1
			c-0.7,0.5-1.1,1-1.2,1.3l0.4,1l-1.2,0.8L23.1,16.3z"/>
	</g>
	<g>
		<path class="st0" d="M55,19.4L43.7,1.9L0,21.2l11.3,17.5L55,19.4z M43.2,3.6l9.8,15.3L11.8,37L1.9,21.7L43.2,3.6z"/>
		<polygon class="st0" points="10.4,41.9 1.3,27.8 0.2,28.6 10,43.6 54.4,24 53.8,22.8 		"/>
		<polygon class="st0" points="9.1,46.5 1.5,34.7 0.4,35.4 8.7,48.1 53.1,28.6 52.6,27.4 		"/>
	</g>
	<g>
		<path class="st0" d="M2.9,15.5c0.1,0,0.1,0,0.2-0.1c0,0,0.1-0.3,0.3-0.7c0.1-0.2,0.2-0.5,0.3-0.8c0.1-0.3,0.3-0.6,0.5-1
			c0.1-0.2,0.2-0.4,0.3-0.5c0.1-0.2,0.2-0.4,0.3-0.6c0.2-0.4,0.5-0.8,0.8-1.2c0.3-0.4,0.6-0.8,1-1.1c0.3-0.4,0.7-0.7,1.1-1.1
			c0.4-0.3,0.8-0.7,1.2-0.9C9.3,7.3,9.7,7,10.1,6.8c0.4-0.2,0.8-0.4,1.2-0.6c0.4-0.1,0.8-0.3,1.1-0.4c0.3-0.1,0.7-0.2,1-0.3l0.1,2.5
			l6.9-4.3L13.3,0l0.1,2.7c-0.2,0.1-0.5,0.1-0.8,0.2c-0.2,0.1-0.4,0.1-0.5,0.2c-0.2,0.1-0.4,0.2-0.6,0.3c-0.4,0.2-0.8,0.4-1.3,0.7
			C9.8,4.3,9.4,4.6,8.9,4.9C8.5,5.3,8,5.6,7.6,6C7.2,6.4,6.8,6.8,6.4,7.2C6,7.7,5.7,8.1,5.4,8.6C5,9,4.8,9.5,4.5,10
			c-0.2,0.5-0.5,0.9-0.6,1.4c-0.1,0.2-0.2,0.4-0.3,0.7c-0.1,0.2-0.1,0.4-0.2,0.6c-0.1,0.4-0.2,0.8-0.3,1.1C3,14.1,3,14.4,2.9,14.6
			c-0.1,0.5-0.1,0.7-0.1,0.7C2.8,15.4,2.9,15.5,2.9,15.5z"/>
		<path class="st0" d="M48.8,34.5c-0.1,0-0.1,0-0.2,0.1c0,0-0.1,0.3-0.3,0.7c-0.1,0.2-0.2,0.5-0.3,0.8c-0.1,0.3-0.3,0.6-0.5,1
			c-0.1,0.2-0.2,0.4-0.3,0.5c-0.1,0.2-0.2,0.4-0.3,0.6c-0.2,0.4-0.5,0.8-0.8,1.2c-0.3,0.4-0.6,0.8-1,1.1c-0.3,0.4-0.7,0.7-1.1,1.1
			c-0.4,0.3-0.8,0.7-1.2,0.9c-0.4,0.3-0.8,0.5-1.2,0.8c-0.4,0.2-0.8,0.4-1.2,0.6c-0.4,0.1-0.8,0.3-1.1,0.4c-0.3,0.1-0.7,0.2-1,0.3
			l-0.1-2.5l-6.9,4.3l7.1,3.9l-0.1-2.7c0.2-0.1,0.5-0.1,0.8-0.2c0.2-0.1,0.4-0.1,0.5-0.2c0.2-0.1,0.4-0.2,0.6-0.3
			c0.4-0.2,0.8-0.4,1.3-0.7c0.4-0.3,0.9-0.6,1.3-0.9c0.4-0.3,0.9-0.7,1.3-1.1c0.4-0.4,0.8-0.8,1.2-1.2c0.4-0.4,0.7-0.9,1-1.4
			c0.3-0.5,0.6-0.9,0.9-1.4c0.2-0.5,0.5-0.9,0.6-1.4c0.1-0.2,0.2-0.4,0.3-0.7c0.1-0.2,0.1-0.4,0.2-0.6c0.1-0.4,0.2-0.8,0.3-1.1
			c0.1-0.3,0.1-0.6,0.2-0.9c0.1-0.5,0.1-0.7,0.1-0.7C48.9,34.6,48.9,34.5,48.8,34.5z"/>
	</g>
</g>
</svg>
