<?xml version="1.0" encoding="UTF-8" standalone="no"?>
<svg width="22px" height="22px" viewBox="0 0 22 22" version="1.1" xmlns="http://www.w3.org/2000/svg" xmlns:xlink="http://www.w3.org/1999/xlink">
    <!-- Generator: Sketch 3.6.1 (26313) - http://www.bohemiancoding.com/sketch -->
    <title>shutterstock_240011764</title>
    <desc>Created with Sketch.</desc>
    <defs></defs>
    <g id="Главная-/-Акции" stroke="none" stroke-width="1" fill="none" fill-rule="evenodd">
        <g id="Desktop" transform="translate(-418.000000, -10.000000)">
            <g id="shutterstock_240011764" transform="translate(418.000000, 10.000000)">
                <path d="M11.4443043,1.02826087 L13.242087,0.107369565 C13.6873478,-0.12076087 14.2330435,0.0253478261 14.5046957,0.44573913 L15.6011087,2.14213043 C15.7711304,2.40541304 16.0576087,2.57065217 16.3706304,2.58643478 L18.3879348,2.68758696 C18.8877174,2.71269565 19.2873043,3.11228261 19.312413,3.61206522 L19.4135652,5.62936957 C19.4293478,5.9423913 19.594587,6.22886957 19.8578696,6.3988913 L21.5542609,7.49530435 C21.9746522,7.76695652 22.1207609,8.31265217 21.8926304,8.75791304 L20.9717391,10.5556957 C20.8287391,10.8347609 20.8287391,11.1652391 20.9717391,11.4443043 L21.8926304,13.242087 C22.1207609,13.6873478 21.9746522,14.2330435 21.5542609,14.5046957 L19.8578696,15.6011087 C19.594587,15.7711304 19.4293478,16.0576087 19.4135652,16.3706304 L19.312413,18.3879348 C19.2873043,18.8877174 18.8877174,19.2873043 18.3879348,19.312413 L16.3706304,19.4135652 C16.0576087,19.4293478 15.7711304,19.594587 15.6011087,19.8578696 L14.5046957,21.5545 C14.2330435,21.9746522 13.6873478,22.1207609 13.242087,21.8926304 L11.4443043,20.9717391 C11.1652391,20.8287391 10.8347609,20.8287391 10.5556957,20.9717391 L8.75791304,21.8926304 C8.31265217,22.1207609 7.76695652,21.9746522 7.49530435,21.5545 L6.3988913,19.8578696 C6.22886957,19.594587 5.9423913,19.4293478 5.62936957,19.4135652 L3.61206522,19.312413 C3.11228261,19.2873043 2.71269565,18.8877174 2.68758696,18.3879348 L2.58643478,16.3706304 C2.57065217,16.0576087 2.40541304,15.7711304 2.14213043,15.6011087 L0.4455,14.5046957 C0.0253478261,14.2330435 -0.12076087,13.6873478 0.107369565,13.242087 L1.02826087,11.4443043 C1.17126087,11.1652391 1.17126087,10.8347609 1.02826087,10.5556957 L0.107369565,8.75791304 C-0.12076087,8.31265217 0.0253478261,7.76695652 0.4455,7.49530435 L2.14213043,6.3988913 C2.40541304,6.22886957 2.57065217,5.9423913 2.58643478,5.62936957 L2.68758696,3.61206522 C2.71269565,3.11228261 3.11228261,2.71269565 3.61206522,2.68758696 L5.62936957,2.58643478 C5.9423913,2.57065217 6.22886957,2.40541304 6.3988913,2.14213043 L7.49530435,0.44573913 C7.76695652,0.0253478261 8.31265217,-0.12076087 8.75791304,0.107369565 L10.5556957,1.02826087 C10.8347609,1.17126087 11.1652391,1.17126087 11.4443043,1.02826087" id="Fill-3" fill="#4FB748"></path>
                <path d="M4.23643478,15.3239565 L2.98076087,10.6372391 L3.90141304,10.3904565 L6.6581087,13.0063043 L5.81947826,9.87656522 L6.69876087,9.64078261 L7.95467391,14.3277391 L7.00508696,14.5821739 L4.29669565,12.032087 L5.11571739,15.088413 L4.23643478,15.3239565" id="Fill-4" fill="#FFFFFF"></path>
                <path d="M8.95519565,14.0594348 L7.69952174,9.37271739 L11.1745652,8.44154348 L11.386913,9.2345 L8.8581087,9.91195652 L9.13669565,10.9509783 L11.4895,10.3206304 L11.7011304,11.1102391 L9.34808696,11.7408261 L9.69004348,13.0163478 L12.3082826,12.3147391 L12.519913,13.1043478 L8.95519565,14.0594348" id="Fill-5" fill="#FFFFFF"></path>
                <path d="M13.9872174,12.7112174 L11.6126522,8.32413043 L12.5811304,8.06467391 L14.1503043,11.0946957 L14.1445652,7.64571739 L15.269913,7.34417391 L16.9686957,10.3978696 L16.8108696,6.93143478 L17.7635652,6.67604348 L17.8812174,11.6678913 L16.8773478,11.936913 L15.0049565,8.68306522 L15.0135652,12.4362174 L13.9872174,12.7112174" id="Fill-6" fill="#FFFFFF"></path>
            </g>
        </g>
    </g>
</svg>